<mxfile host="app.diagrams.net" modified="2023-01-06T03:13:13.824Z" agent="5.0 (X11)" etag="JgsyALgQD4Y6Vi8xUpAE" version="20.5.3" type="github">
  <diagram id="MdNPJtfJ6tt3xr-JiONw" name="Page-1">
    <mxGraphModel dx="3731" dy="1077" grid="1" gridSize="10" guides="1" tooltips="1" connect="1" arrows="1" fold="1" page="1" pageScale="1" pageWidth="850" pageHeight="1100" math="0" shadow="0">
      <root>
        <mxCell id="0" />
        <mxCell id="1" parent="0" />
        <mxCell id="9QVJno16Qjs4szpw7Lwq-1" value="" style="rounded=1;whiteSpace=wrap;html=1;" vertex="1" parent="1">
          <mxGeometry x="-680" y="170" width="240" height="390" as="geometry" />
        </mxCell>
        <mxCell id="9QVJno16Qjs4szpw7Lwq-2" style="edgeStyle=orthogonalEdgeStyle;rounded=0;orthogonalLoop=1;jettySize=auto;html=1;" edge="1" parent="1" source="9QVJno16Qjs4szpw7Lwq-3" target="9QVJno16Qjs4szpw7Lwq-1">
          <mxGeometry relative="1" as="geometry" />
        </mxCell>
        <mxCell id="9QVJno16Qjs4szpw7Lwq-3" value="register" style="text;html=1;strokeColor=none;fillColor=none;align=center;verticalAlign=middle;whiteSpace=wrap;rounded=0;" vertex="1" parent="1">
          <mxGeometry x="-590" y="100" width="60" height="30" as="geometry" />
        </mxCell>
        <mxCell id="9QVJno16Qjs4szpw7Lwq-4" value="" style="rounded=1;whiteSpace=wrap;html=1;" vertex="1" parent="1">
          <mxGeometry x="-230" y="170" width="240" height="390" as="geometry" />
        </mxCell>
        <mxCell id="9QVJno16Qjs4szpw7Lwq-5" style="edgeStyle=orthogonalEdgeStyle;rounded=0;orthogonalLoop=1;jettySize=auto;html=1;" edge="1" parent="1" source="9QVJno16Qjs4szpw7Lwq-6" target="9QVJno16Qjs4szpw7Lwq-4">
          <mxGeometry relative="1" as="geometry" />
        </mxCell>
        <mxCell id="9QVJno16Qjs4szpw7Lwq-6" value="home" style="text;html=1;strokeColor=none;fillColor=none;align=center;verticalAlign=middle;whiteSpace=wrap;rounded=0;" vertex="1" parent="1">
          <mxGeometry x="-140" y="100" width="60" height="30" as="geometry" />
        </mxCell>
        <mxCell id="9QVJno16Qjs4szpw7Lwq-7" style="edgeStyle=orthogonalEdgeStyle;rounded=0;orthogonalLoop=1;jettySize=auto;html=1;entryX=0.5;entryY=0;entryDx=0;entryDy=0;" edge="1" parent="1" source="9QVJno16Qjs4szpw7Lwq-8" target="9QVJno16Qjs4szpw7Lwq-28">
          <mxGeometry relative="1" as="geometry" />
        </mxCell>
        <mxCell id="9QVJno16Qjs4szpw7Lwq-8" value="" style="rounded=1;whiteSpace=wrap;html=1;" vertex="1" parent="1">
          <mxGeometry x="260" y="170" width="240" height="390" as="geometry" />
        </mxCell>
        <mxCell id="9QVJno16Qjs4szpw7Lwq-9" style="edgeStyle=orthogonalEdgeStyle;rounded=0;orthogonalLoop=1;jettySize=auto;html=1;" edge="1" parent="1" source="9QVJno16Qjs4szpw7Lwq-10" target="9QVJno16Qjs4szpw7Lwq-8">
          <mxGeometry relative="1" as="geometry" />
        </mxCell>
        <mxCell id="9QVJno16Qjs4szpw7Lwq-10" value="home drawer" style="text;html=1;strokeColor=none;fillColor=none;align=center;verticalAlign=middle;whiteSpace=wrap;rounded=0;" vertex="1" parent="1">
          <mxGeometry x="350" y="100" width="60" height="30" as="geometry" />
        </mxCell>
        <mxCell id="9QVJno16Qjs4szpw7Lwq-12" style="edgeStyle=orthogonalEdgeStyle;rounded=0;orthogonalLoop=1;jettySize=auto;html=1;entryX=0.5;entryY=0;entryDx=0;entryDy=0;" edge="1" parent="1" source="9QVJno16Qjs4szpw7Lwq-13" target="9QVJno16Qjs4szpw7Lwq-105">
          <mxGeometry relative="1" as="geometry" />
        </mxCell>
        <mxCell id="9QVJno16Qjs4szpw7Lwq-13" value="" style="rounded=1;whiteSpace=wrap;html=1;" vertex="1" parent="1">
          <mxGeometry x="-360" y="900" width="240" height="390" as="geometry" />
        </mxCell>
        <mxCell id="9QVJno16Qjs4szpw7Lwq-14" style="edgeStyle=orthogonalEdgeStyle;rounded=0;orthogonalLoop=1;jettySize=auto;html=1;" edge="1" parent="1" source="9QVJno16Qjs4szpw7Lwq-15" target="9QVJno16Qjs4szpw7Lwq-13">
          <mxGeometry relative="1" as="geometry" />
        </mxCell>
        <mxCell id="9QVJno16Qjs4szpw7Lwq-15" value="&lt;div&gt;students&lt;/div&gt;" style="text;html=1;strokeColor=none;fillColor=none;align=center;verticalAlign=middle;whiteSpace=wrap;rounded=0;" vertex="1" parent="1">
          <mxGeometry x="-270" y="830" width="60" height="30" as="geometry" />
        </mxCell>
        <mxCell id="9QVJno16Qjs4szpw7Lwq-16" style="edgeStyle=orthogonalEdgeStyle;rounded=0;orthogonalLoop=1;jettySize=auto;html=1;entryX=0.5;entryY=0;entryDx=0;entryDy=0;" edge="1" parent="1" source="9QVJno16Qjs4szpw7Lwq-17" target="9QVJno16Qjs4szpw7Lwq-59">
          <mxGeometry relative="1" as="geometry">
            <mxPoint x="170" y="880" as="targetPoint" />
          </mxGeometry>
        </mxCell>
        <mxCell id="9QVJno16Qjs4szpw7Lwq-17" value="areas list" style="text;html=1;strokeColor=none;fillColor=none;align=center;verticalAlign=middle;whiteSpace=wrap;rounded=0;" vertex="1" parent="1">
          <mxGeometry x="130" y="830" width="60" height="30" as="geometry" />
        </mxCell>
        <mxCell id="9QVJno16Qjs4szpw7Lwq-24" style="edgeStyle=orthogonalEdgeStyle;rounded=0;orthogonalLoop=1;jettySize=auto;html=1;entryX=0.5;entryY=0;entryDx=0;entryDy=0;" edge="1" parent="1" source="9QVJno16Qjs4szpw7Lwq-28" target="9QVJno16Qjs4szpw7Lwq-15">
          <mxGeometry relative="1" as="geometry" />
        </mxCell>
        <mxCell id="9QVJno16Qjs4szpw7Lwq-25" style="edgeStyle=orthogonalEdgeStyle;rounded=0;orthogonalLoop=1;jettySize=auto;html=1;entryX=0.5;entryY=0;entryDx=0;entryDy=0;" edge="1" parent="1" source="9QVJno16Qjs4szpw7Lwq-28">
          <mxGeometry relative="1" as="geometry">
            <mxPoint x="1000" y="830" as="targetPoint" />
          </mxGeometry>
        </mxCell>
        <mxCell id="9QVJno16Qjs4szpw7Lwq-26" style="edgeStyle=orthogonalEdgeStyle;rounded=0;orthogonalLoop=1;jettySize=auto;html=1;entryX=0.5;entryY=0;entryDx=0;entryDy=0;" edge="1" parent="1" source="9QVJno16Qjs4szpw7Lwq-28" target="9QVJno16Qjs4szpw7Lwq-17">
          <mxGeometry relative="1" as="geometry" />
        </mxCell>
        <mxCell id="9QVJno16Qjs4szpw7Lwq-27" style="edgeStyle=orthogonalEdgeStyle;rounded=0;orthogonalLoop=1;jettySize=auto;html=1;entryX=0.5;entryY=0;entryDx=0;entryDy=0;" edge="1" parent="1" source="9QVJno16Qjs4szpw7Lwq-28">
          <mxGeometry relative="1" as="geometry">
            <mxPoint x="580" y="830" as="targetPoint" />
          </mxGeometry>
        </mxCell>
        <mxCell id="9QVJno16Qjs4szpw7Lwq-28" value="" style="rhombus;whiteSpace=wrap;html=1;" vertex="1" parent="1">
          <mxGeometry x="340" y="660" width="80" height="80" as="geometry" />
        </mxCell>
        <mxCell id="9QVJno16Qjs4szpw7Lwq-29" value="username" style="rounded=1;whiteSpace=wrap;html=1;" vertex="1" parent="1">
          <mxGeometry x="-617.5" y="430" width="115" height="20" as="geometry" />
        </mxCell>
        <mxCell id="9QVJno16Qjs4szpw7Lwq-30" value="password" style="rounded=1;whiteSpace=wrap;html=1;" vertex="1" parent="1">
          <mxGeometry x="-617.5" y="470" width="115" height="20" as="geometry" />
        </mxCell>
        <mxCell id="9QVJno16Qjs4szpw7Lwq-32" value="title" style="rounded=1;whiteSpace=wrap;html=1;" vertex="1" parent="1">
          <mxGeometry x="-230" y="170" width="240" height="40" as="geometry" />
        </mxCell>
        <mxCell id="9QVJno16Qjs4szpw7Lwq-33" value="" style="rounded=1;whiteSpace=wrap;html=1;" vertex="1" parent="1">
          <mxGeometry x="-230" y="170" width="40" height="40" as="geometry" />
        </mxCell>
        <mxCell id="9QVJno16Qjs4szpw7Lwq-34" value="" style="rounded=1;whiteSpace=wrap;html=1;" vertex="1" parent="1">
          <mxGeometry x="-220" y="180" width="20" height="10" as="geometry" />
        </mxCell>
        <mxCell id="9QVJno16Qjs4szpw7Lwq-35" value="" style="rounded=1;whiteSpace=wrap;html=1;" vertex="1" parent="1">
          <mxGeometry x="-220" y="190" width="20" height="10" as="geometry" />
        </mxCell>
        <mxCell id="9QVJno16Qjs4szpw7Lwq-36" value="" style="rounded=1;whiteSpace=wrap;html=1;" vertex="1" parent="1">
          <mxGeometry x="-210" y="230" width="200" height="100" as="geometry" />
        </mxCell>
        <mxCell id="9QVJno16Qjs4szpw7Lwq-37" value="" style="rounded=1;whiteSpace=wrap;html=1;" vertex="1" parent="1">
          <mxGeometry x="-210" y="430" width="100" height="100" as="geometry" />
        </mxCell>
        <mxCell id="9QVJno16Qjs4szpw7Lwq-38" value="&lt;blockquote style=&quot;font-size: 8px;&quot;&gt;&lt;h1 style=&quot;&quot;&gt;&lt;font style=&quot;font-size: 8px;&quot;&gt;&lt;span style=&quot;font-weight: normal;&quot;&gt;Lorem ipsum dolor sit amet, consectetur adipisicing elit, sed do eiusmod tempor incididunt ut labore et dolore magna aliqua.&lt;/span&gt;&lt;/font&gt;&lt;/h1&gt;&lt;/blockquote&gt;" style="text;html=1;strokeColor=none;fillColor=none;spacing=5;spacingTop=-20;whiteSpace=wrap;overflow=hidden;rounded=0;" vertex="1" parent="1">
          <mxGeometry x="-227.5" y="330" width="237.5" height="80" as="geometry" />
        </mxCell>
        <mxCell id="9QVJno16Qjs4szpw7Lwq-39" value="&lt;blockquote style=&quot;font-size: 8px;&quot;&gt;&lt;h1 style=&quot;&quot;&gt;&lt;font style=&quot;font-size: 8px;&quot;&gt;&lt;span style=&quot;font-weight: normal;&quot;&gt;Lorem ipsum dolor sit amet, consectetur adipisicing elit, sed do eiusmod tempor incididunt ut labore et dolore magna aliqua.&lt;/span&gt;&lt;/font&gt;&lt;/h1&gt;&lt;/blockquote&gt;" style="text;html=1;strokeColor=none;fillColor=none;spacing=5;spacingTop=-20;whiteSpace=wrap;overflow=hidden;rounded=0;" vertex="1" parent="1">
          <mxGeometry x="-140" y="420" width="140" height="120" as="geometry" />
        </mxCell>
        <mxCell id="9QVJno16Qjs4szpw7Lwq-40" value="title" style="rounded=1;whiteSpace=wrap;html=1;" vertex="1" parent="1">
          <mxGeometry x="260" y="170" width="240" height="40" as="geometry" />
        </mxCell>
        <mxCell id="9QVJno16Qjs4szpw7Lwq-41" value="" style="rounded=1;whiteSpace=wrap;html=1;fontSize=8;" vertex="1" parent="1">
          <mxGeometry x="260" y="170" width="190" height="390" as="geometry" />
        </mxCell>
        <mxCell id="9QVJno16Qjs4szpw7Lwq-42" value="residents" style="rounded=1;whiteSpace=wrap;html=1;" vertex="1" parent="1">
          <mxGeometry x="290" y="280" width="140" height="20" as="geometry" />
        </mxCell>
        <mxCell id="9QVJno16Qjs4szpw7Lwq-43" value="admin image" style="ellipse;whiteSpace=wrap;html=1;aspect=fixed;fontSize=8;" vertex="1" parent="1">
          <mxGeometry x="280" y="190" width="40" height="40" as="geometry" />
        </mxCell>
        <mxCell id="9QVJno16Qjs4szpw7Lwq-44" value="areas" style="rounded=1;whiteSpace=wrap;html=1;" vertex="1" parent="1">
          <mxGeometry x="290" y="320" width="140" height="20" as="geometry" />
        </mxCell>
        <mxCell id="9QVJno16Qjs4szpw7Lwq-45" value="activities" style="rounded=1;whiteSpace=wrap;html=1;" vertex="1" parent="1">
          <mxGeometry x="290" y="360" width="140" height="20" as="geometry" />
        </mxCell>
        <mxCell id="9QVJno16Qjs4szpw7Lwq-46" value="reports" style="rounded=1;whiteSpace=wrap;html=1;" vertex="1" parent="1">
          <mxGeometry x="290" y="400" width="140" height="20" as="geometry" />
        </mxCell>
        <mxCell id="9QVJno16Qjs4szpw7Lwq-47" value="name" style="text;html=1;strokeColor=none;fillColor=none;align=center;verticalAlign=middle;whiteSpace=wrap;rounded=0;fontSize=6;" vertex="1" parent="1">
          <mxGeometry x="340" y="195" width="30" height="10" as="geometry" />
        </mxCell>
        <mxCell id="9QVJno16Qjs4szpw7Lwq-48" value="position" style="text;html=1;strokeColor=none;fillColor=none;align=center;verticalAlign=middle;whiteSpace=wrap;rounded=0;fontSize=6;" vertex="1" parent="1">
          <mxGeometry x="340" y="205" width="30" height="10" as="geometry" />
        </mxCell>
        <mxCell id="9QVJno16Qjs4szpw7Lwq-49" value="student name&lt;br&gt;date and time&lt;br&gt;doctor" style="rounded=1;whiteSpace=wrap;html=1;fontSize=6;" vertex="1" parent="1">
          <mxGeometry x="-350" y="990" width="220" height="60" as="geometry" />
        </mxCell>
        <mxCell id="9QVJno16Qjs4szpw7Lwq-51" value="search" style="rounded=1;whiteSpace=wrap;html=1;fontSize=14;" vertex="1" parent="1">
          <mxGeometry x="-355" y="950" width="195" height="20" as="geometry" />
        </mxCell>
        <mxCell id="9QVJno16Qjs4szpw7Lwq-52" value="consultations" style="rounded=1;whiteSpace=wrap;html=1;" vertex="1" parent="1">
          <mxGeometry x="-360" y="900" width="240" height="40" as="geometry" />
        </mxCell>
        <mxCell id="9QVJno16Qjs4szpw7Lwq-53" value="" style="rounded=1;whiteSpace=wrap;html=1;fontSize=14;" vertex="1" parent="1">
          <mxGeometry x="-150" y="950" width="25" height="20" as="geometry" />
        </mxCell>
        <mxCell id="9QVJno16Qjs4szpw7Lwq-55" value="" style="rounded=1;whiteSpace=wrap;html=1;" vertex="1" parent="1">
          <mxGeometry x="40" y="900" width="240" height="390" as="geometry" />
        </mxCell>
        <mxCell id="9QVJno16Qjs4szpw7Lwq-56" value="name&lt;br&gt;description" style="rounded=1;whiteSpace=wrap;html=1;fontSize=6;" vertex="1" parent="1">
          <mxGeometry x="50" y="1000" width="220" height="60" as="geometry" />
        </mxCell>
        <mxCell id="9QVJno16Qjs4szpw7Lwq-57" value="&lt;font style=&quot;font-size: 14px;&quot;&gt;image&lt;/font&gt;" style="rounded=1;whiteSpace=wrap;html=1;fontSize=6;" vertex="1" parent="1">
          <mxGeometry x="50" y="1000" width="65" height="60" as="geometry" />
        </mxCell>
        <mxCell id="9QVJno16Qjs4szpw7Lwq-58" value="search" style="rounded=1;whiteSpace=wrap;html=1;fontSize=14;" vertex="1" parent="1">
          <mxGeometry x="45" y="950" width="195" height="20" as="geometry" />
        </mxCell>
        <mxCell id="9QVJno16Qjs4szpw7Lwq-59" value="title" style="rounded=1;whiteSpace=wrap;html=1;" vertex="1" parent="1">
          <mxGeometry x="40" y="900" width="240" height="40" as="geometry" />
        </mxCell>
        <mxCell id="9QVJno16Qjs4szpw7Lwq-60" value="" style="rounded=1;whiteSpace=wrap;html=1;fontSize=14;" vertex="1" parent="1">
          <mxGeometry x="250" y="950" width="25" height="20" as="geometry" />
        </mxCell>
        <mxCell id="9QVJno16Qjs4szpw7Lwq-61" value="&lt;p style=&quot;line-height: 50%;&quot;&gt;&lt;font style=&quot;font-size: 7px;&quot;&gt; status &lt;br&gt;clean&lt;br&gt;&lt;/font&gt;&lt;/p&gt;" style="rounded=1;whiteSpace=wrap;html=1;fontSize=14;" vertex="1" parent="1">
          <mxGeometry x="210" y="1016.25" width="50" height="27.5" as="geometry" />
        </mxCell>
        <mxCell id="9QVJno16Qjs4szpw7Lwq-62" value="" style="rounded=1;whiteSpace=wrap;html=1;" vertex="1" parent="1">
          <mxGeometry x="-360" y="900" width="40" height="40" as="geometry" />
        </mxCell>
        <mxCell id="9QVJno16Qjs4szpw7Lwq-63" value="" style="rounded=1;whiteSpace=wrap;html=1;" vertex="1" parent="1">
          <mxGeometry x="-350" y="910" width="20" height="10" as="geometry" />
        </mxCell>
        <mxCell id="9QVJno16Qjs4szpw7Lwq-64" value="" style="rounded=1;whiteSpace=wrap;html=1;" vertex="1" parent="1">
          <mxGeometry x="-350" y="920" width="20" height="10" as="geometry" />
        </mxCell>
        <mxCell id="9QVJno16Qjs4szpw7Lwq-65" value="" style="rounded=1;whiteSpace=wrap;html=1;" vertex="1" parent="1">
          <mxGeometry x="40" y="900" width="40" height="40" as="geometry" />
        </mxCell>
        <mxCell id="9QVJno16Qjs4szpw7Lwq-66" value="" style="rounded=1;whiteSpace=wrap;html=1;" vertex="1" parent="1">
          <mxGeometry x="50" y="910" width="20" height="10" as="geometry" />
        </mxCell>
        <mxCell id="9QVJno16Qjs4szpw7Lwq-67" value="" style="rounded=1;whiteSpace=wrap;html=1;" vertex="1" parent="1">
          <mxGeometry x="50" y="920" width="20" height="10" as="geometry" />
        </mxCell>
        <mxCell id="9QVJno16Qjs4szpw7Lwq-84" value="&lt;p style=&quot;line-height: 50%;&quot;&gt;&lt;font style=&quot;font-size: 7px;&quot;&gt;update status spinner&lt;br&gt;&lt;/font&gt;&lt;/p&gt;" style="rounded=1;whiteSpace=wrap;html=1;fontSize=14;" vertex="1" parent="1">
          <mxGeometry x="180" y="977.5" width="95" height="12.5" as="geometry" />
        </mxCell>
        <mxCell id="9QVJno16Qjs4szpw7Lwq-85" value="sort" style="text;html=1;strokeColor=none;fillColor=none;align=center;verticalAlign=middle;whiteSpace=wrap;rounded=0;fontSize=6;" vertex="1" parent="1">
          <mxGeometry x="115" y="978" width="60" height="12" as="geometry" />
        </mxCell>
        <mxCell id="9QVJno16Qjs4szpw7Lwq-103" value="view" style="rounded=1;whiteSpace=wrap;html=1;fontSize=14;" vertex="1" parent="1">
          <mxGeometry x="-180" y="1000" width="40" height="40" as="geometry" />
        </mxCell>
        <mxCell id="9QVJno16Qjs4szpw7Lwq-104" value="" style="rounded=1;whiteSpace=wrap;html=1;" vertex="1" parent="1">
          <mxGeometry x="-360" y="1390" width="240" height="390" as="geometry" />
        </mxCell>
        <mxCell id="9QVJno16Qjs4szpw7Lwq-105" value="title" style="rounded=1;whiteSpace=wrap;html=1;" vertex="1" parent="1">
          <mxGeometry x="-360" y="1390" width="240" height="40" as="geometry" />
        </mxCell>
        <mxCell id="9QVJno16Qjs4szpw7Lwq-106" value="image" style="rounded=1;whiteSpace=wrap;html=1;fontSize=14;" vertex="1" parent="1">
          <mxGeometry x="-335" y="1450" width="105" height="100" as="geometry" />
        </mxCell>
        <mxCell id="9QVJno16Qjs4szpw7Lwq-107" value="&lt;div&gt;name&lt;br&gt;age&lt;/div&gt;&lt;div&gt;adress&lt;br&gt;&lt;/div&gt;" style="text;html=1;strokeColor=none;fillColor=none;align=center;verticalAlign=middle;whiteSpace=wrap;rounded=0;" vertex="1" parent="1">
          <mxGeometry x="-210" y="1470" width="60" height="60" as="geometry" />
        </mxCell>
        <mxCell id="9QVJno16Qjs4szpw7Lwq-108" value="Violations:" style="text;html=1;strokeColor=none;fillColor=none;align=center;verticalAlign=middle;whiteSpace=wrap;rounded=0;" vertex="1" parent="1">
          <mxGeometry x="-335" y="1570" width="60" height="30" as="geometry" />
        </mxCell>
        <mxCell id="9QVJno16Qjs4szpw7Lwq-109" value="" style="rounded=1;whiteSpace=wrap;html=1;" vertex="1" parent="1">
          <mxGeometry x="-1050" y="170" width="240" height="390" as="geometry" />
        </mxCell>
        <mxCell id="9QVJno16Qjs4szpw7Lwq-110" style="edgeStyle=orthogonalEdgeStyle;rounded=0;orthogonalLoop=1;jettySize=auto;html=1;" edge="1" parent="1" source="9QVJno16Qjs4szpw7Lwq-111" target="9QVJno16Qjs4szpw7Lwq-109">
          <mxGeometry relative="1" as="geometry" />
        </mxCell>
        <mxCell id="9QVJno16Qjs4szpw7Lwq-111" value="login" style="text;html=1;strokeColor=none;fillColor=none;align=center;verticalAlign=middle;whiteSpace=wrap;rounded=0;" vertex="1" parent="1">
          <mxGeometry x="-960" y="100" width="60" height="30" as="geometry" />
        </mxCell>
        <mxCell id="9QVJno16Qjs4szpw7Lwq-112" value="username" style="rounded=1;whiteSpace=wrap;html=1;" vertex="1" parent="1">
          <mxGeometry x="-987.5" y="430" width="115" height="20" as="geometry" />
        </mxCell>
        <mxCell id="9QVJno16Qjs4szpw7Lwq-113" value="password" style="rounded=1;whiteSpace=wrap;html=1;" vertex="1" parent="1">
          <mxGeometry x="-987.5" y="470" width="115" height="20" as="geometry" />
        </mxCell>
        <mxCell id="9QVJno16Qjs4szpw7Lwq-114" value="logo" style="ellipse;whiteSpace=wrap;html=1;aspect=fixed;" vertex="1" parent="1">
          <mxGeometry x="-970" y="230" width="80" height="80" as="geometry" />
        </mxCell>
        <mxCell id="9QVJno16Qjs4szpw7Lwq-115" value="family history" style="rounded=1;whiteSpace=wrap;html=1;" vertex="1" parent="1">
          <mxGeometry x="-617.5" y="390" width="115" height="20" as="geometry" />
        </mxCell>
        <mxCell id="9QVJno16Qjs4szpw7Lwq-116" value="height" style="rounded=1;whiteSpace=wrap;html=1;" vertex="1" parent="1">
          <mxGeometry x="-617.5" y="350" width="115" height="20" as="geometry" />
        </mxCell>
        <mxCell id="9QVJno16Qjs4szpw7Lwq-117" value="weight" style="rounded=1;whiteSpace=wrap;html=1;" vertex="1" parent="1">
          <mxGeometry x="-617.5" y="320" width="115" height="20" as="geometry" />
        </mxCell>
        <mxCell id="9QVJno16Qjs4szpw7Lwq-118" value="" style="rounded=1;whiteSpace=wrap;html=1;" vertex="1" parent="1">
          <mxGeometry x="670" y="160" width="240" height="390" as="geometry" />
        </mxCell>
        <mxCell id="9QVJno16Qjs4szpw7Lwq-119" value="add appointment" style="rounded=1;whiteSpace=wrap;html=1;" vertex="1" parent="1">
          <mxGeometry x="670" y="160" width="240" height="40" as="geometry" />
        </mxCell>
        <mxCell id="9QVJno16Qjs4szpw7Lwq-120" value="image" style="rounded=1;whiteSpace=wrap;html=1;fontSize=14;" vertex="1" parent="1">
          <mxGeometry x="695" y="220" width="105" height="100" as="geometry" />
        </mxCell>
        <mxCell id="9QVJno16Qjs4szpw7Lwq-121" value="doctor name&lt;br&gt;" style="text;html=1;strokeColor=none;fillColor=none;align=center;verticalAlign=middle;whiteSpace=wrap;rounded=0;" vertex="1" parent="1">
          <mxGeometry x="820" y="240" width="60" height="60" as="geometry" />
        </mxCell>
        <mxCell id="9QVJno16Qjs4szpw7Lwq-122" value="date&lt;br&gt;time" style="text;html=1;strokeColor=none;fillColor=none;align=center;verticalAlign=middle;whiteSpace=wrap;rounded=0;" vertex="1" parent="1">
          <mxGeometry x="695" y="340" width="60" height="30" as="geometry" />
        </mxCell>
        <mxCell id="9QVJno16Qjs4szpw7Lwq-123" value="book" style="rounded=1;whiteSpace=wrap;html=1;fontSize=14;" vertex="1" parent="1">
          <mxGeometry x="690" y="500" width="200" height="30" as="geometry" />
        </mxCell>
      </root>
    </mxGraphModel>
  </diagram>
</mxfile>
